<svg width="1920" height="1080" viewBox="0 0 1920 1080" xmlns="http://www.w3.org/2000/svg">
  <defs>
    <linearGradient id="aboutBase" x1="0%" y1="0%" x2="100%" y2="100%">
      <stop offset="0%" stop-color="#070504"/>
      <stop offset="50%" stop-color="#110d09"/>
      <stop offset="100%" stop-color="#1f160b"/>
    </linearGradient>
    <radialGradient id="portraitLight" cx="20%" cy="36%" r="42%">
      <stop offset="0%" stop-color="#fff1bd" stop-opacity="0.23"/>
      <stop offset="58%" stop-color="#f0c66e" stop-opacity="0.08"/>
      <stop offset="100%" stop-color="#000000" stop-opacity="0"/>
    </radialGradient>
    <filter id="blur"><feGaussianBlur stdDeviation="18"/></filter>
  </defs>
  <rect width="1920" height="1080" fill="url(#aboutBase)"/>
  <rect width="1920" height="1080" fill="url(#portraitLight)"/>
  <path d="M120 760 C360 520 560 510 780 360 C980 224 1180 156 1500 240" fill="none" stroke="#fff1bd" stroke-opacity="0.18" stroke-width="2"/>
  <path d="M180 830 C470 650 700 640 930 500 C1160 360 1350 316 1680 420" fill="none" stroke="#b8862f" stroke-opacity="0.2" stroke-width="3"/>
  <circle cx="380" cy="310" r="190" fill="#f0c66e" opacity="0.08" filter="url(#blur)"/>
  <circle cx="1490" cy="770" r="260" fill="#fff1bd" opacity="0.06" filter="url(#blur)"/>
  <g opacity="0.34">
    <circle cx="260" cy="220" r="2.2" fill="#fff1bd"/>
    <circle cx="640" cy="180" r="1.4" fill="#f0c66e"/>
    <circle cx="1180" cy="300" r="2" fill="#fff1bd"/>
    <circle cx="1510" cy="520" r="1.7" fill="#f0c66e"/>
    <circle cx="980" cy="780" r="1.4" fill="#fff3cf"/>
  </g>
</svg>
